#N canvas 22 42 1324 643 10;
#X obj 36 69 oscparse;
#X text 33 16 RECEIVE OSC;
#X obj 36 91 list trim;
#X text 33 246 DISPLAY OSC DATAS;
#X obj 463 270 cnv 15 330 30 empty empty empty 20 12 0 14 -262130 -66577
0;
#X text 483 402 FSR1;
#X text 533 402 FSR2;
#X text 583 402 FSR3;
#X obj 628 375 tgl 15 0 empty empty empty 17 7 0 10 -262130 -1 -1 0
1;
#X floatatom 478 375 5 0 0 0 - - -;
#X floatatom 528 375 5 0 0 0 - - -;
#X floatatom 578 375 5 0 0 0 - - -;
#X obj 478 422 vsl 15 100 0 1000 0 0 empty empty empty 0 -9 0 10 -262130
-1 -1 0 1;
#X obj 528 422 vsl 15 100 0 1000 0 0 empty empty empty 0 -9 0 10 -262130
-1 -1 0 1;
#X obj 578 422 vsl 15 100 0 1000 0 0 empty empty empty 0 -9 0 10 -262130
-1 -1 0 1;
#X obj 478 307 r corailDatas;
#X text 479 280 CORAIL;
#X obj 36 46 netreceive -u -b 9003;
#X obj 254 146 s tipopDatas;
#X obj 830 276 cnv 15 420 30 empty empty empty 20 12 0 14 -204800 -66577
0;
#X obj 929 462 tgl 15 0 empty empty empty 17 7 0 10 -204800 -1 -1 0
1;
#X floatatom 844 381 5 0 0 0 - - -;
#X floatatom 884 381 5 0 0 0 - - -;
#X floatatom 1004 381 5 0 0 0 - - -;
#X obj 844 448 vsl 15 100 0 1000 0 0 empty empty empty 0 -9 0 10 -204800
-1 -1 4475 1;
#X obj 884 447 vsl 15 100 0 1000 0 0 empty empty empty 0 -9 0 10 -204800
-1 -1 4782 1;
#X obj 1005 428 vsl 15 100 0 1000 0 0 empty empty empty 0 -9 0 10 -204800
-1 -1 0 1;
#X obj 1082 371 tgl 30 0 empty empty empty 17 7 0 10 -204800 -1 -1
0 1;
#X text 846 286 TIPOP;
#X obj 845 313 r tipopDatas;
#X obj 36 146 s bolstickDatas;
#X obj 145 146 s corailDatas;
#X obj 38 268 cnv 15 380 30 empty empty empty 20 12 0 14 -261234 -66577
0;
#X obj 135 440 tgl 15 0 empty empty empty 17 7 0 10 -261234 -1 -1 0
1;
#X floatatom 53 371 5 0 0 0 - - -;
#X floatatom 94 371 5 0 0 0 - - -;
#X floatatom 228 373 5 0 0 0 - - -;
#X obj 53 423 vsl 15 100 0 1000 0 0 empty empty empty 0 -9 0 10 -261234
-1 -1 0 1;
#X obj 94 423 vsl 15 100 0 1000 0 0 empty empty empty 0 -9 0 10 -261234
-1 -1 0 1;
#X obj 228 420 vsl 15 100 0 1000 0 0 empty empty empty 0 -9 0 10 -261234
-1 -1 0 1;
#X text 54 278 BOLSTICK;
#X obj 287 376 tgl 15 0 empty empty empty 17 7 0 10 -261234 -1 -1 0
1;
#X obj 53 305 r bolstickDatas;
#X obj 188 306 print bol;
#X obj 36 118 route Bolstick Corail Tipop;
#X obj 53 328 route JoyX JoyY JoyB Pres Button;
#X obj 478 331 route FSR1 FSR2 FSR3 Button;
#X obj 845 336 route JX JY JPB PR SW1 SW2 SW3;
#X text 1087 406 Switch1;
#X obj 1141 371 tgl 30 0 empty empty empty 17 7 0 10 -204800 -1 -1
0 1;
#X obj 1197 371 tgl 30 0 empty empty empty 17 7 0 10 -204800 -1 -1
0 1;
#X text 1146 406 Switch2;
#X text 1203 406 Switch3;
#X obj 466 572 s corail-p0;
#X obj 541 572 s corail-p1;
#X obj 615 572 s corail-p2;
#X text 59 403 joyX;
#X text 101 402 joyY;
#X text 848 428 joyX;
#X text 890 426 joyY;
#X text 143 420 joyBT;
#X text 935 441 joyBT;
#X text 236 400 blow;
#X text 292 394 ON/OFF button;
#X text 633 393 ON/OFF button;
#X text 1012 408 blow;
#X obj 693 571 s corail-start;
#X obj 234 566 s bolstick-p2;
#X obj 49 564 s bolstick-p0;
#X obj 141 565 s bolstick-p1;
#X obj 325 568 s bolstick-start;
#X obj 844 574 s tipop-p0;
#X obj 915 574 s tipop-p1;
#X obj 988 575 s tipop-p2;
#X obj 1058 575 s tipop-p3;
#X obj 1128 575 s tipop-p4;
#X obj 1198 576 s tipop-p5;
#X obj 226 99 print datas;
#X connect 0 0 2 0;
#X connect 2 0 44 0;
#X connect 2 0 77 0;
#X connect 8 0 66 0;
#X connect 9 0 12 0;
#X connect 10 0 13 0;
#X connect 11 0 14 0;
#X connect 12 0 53 0;
#X connect 13 0 54 0;
#X connect 14 0 55 0;
#X connect 15 0 46 0;
#X connect 17 0 0 0;
#X connect 21 0 24 0;
#X connect 22 0 25 0;
#X connect 23 0 26 0;
#X connect 24 0 71 0;
#X connect 25 0 72 0;
#X connect 26 0 73 0;
#X connect 27 0 74 0;
#X connect 29 0 47 0;
#X connect 34 0 37 0;
#X connect 35 0 38 0;
#X connect 36 0 39 0;
#X connect 37 0 68 0;
#X connect 38 0 69 0;
#X connect 39 0 67 0;
#X connect 41 0 70 0;
#X connect 42 0 43 0;
#X connect 42 0 45 0;
#X connect 44 0 30 0;
#X connect 44 1 31 0;
#X connect 44 2 18 0;
#X connect 45 0 34 0;
#X connect 45 1 35 0;
#X connect 45 2 33 0;
#X connect 45 3 36 0;
#X connect 45 4 41 0;
#X connect 46 0 9 0;
#X connect 46 1 10 0;
#X connect 46 2 11 0;
#X connect 46 3 8 0;
#X connect 47 0 21 0;
#X connect 47 1 22 0;
#X connect 47 2 20 0;
#X connect 47 3 23 0;
#X connect 47 4 27 0;
#X connect 47 5 49 0;
#X connect 47 6 50 0;
#X connect 49 0 75 0;
#X connect 50 0 76 0;
